<svg width="675" height="480" viewBox="0 0 675 480" fill="none" xmlns="http://www.w3.org/2000/svg">
<path fill-rule="evenodd" clip-rule="evenodd" d="M144.228 209.775C147.623 205.8 149.921 200.928 149.537 195.469C148.431 179.739 126.48 183.2 122.21 191.138C117.94 199.077 118.448 219.215 123.966 220.634C126.167 221.199 130.855 219.813 135.627 216.945L132.632 238.08H150.316L144.228 209.775Z" fill="#B28B67"/>
<path fill-rule="evenodd" clip-rule="evenodd" d="M129.195 182.492C131.612 181.757 135.12 181.508 136.595 181.676C135.756 179.67 135.423 177.435 135.694 175.259C135.958 173.144 136.905 171.344 137.781 169.457C138.185 168.587 138.643 167.722 139.325 167.057C140.02 166.38 140.9 165.932 141.823 165.719C142.767 165.5 143.754 165.519 144.7 165.717C145.118 165.804 145.493 165.995 145.904 166.101C146.324 166.21 146.528 165.948 146.833 165.684C147.567 165.049 148.645 164.735 149.575 164.623C150.618 164.497 151.7 164.654 152.695 164.996C153.663 165.329 154.593 165.87 155.293 166.658C155.605 167.008 155.888 167.407 156.072 167.848C156.147 168.029 156.16 168.136 156.341 168.202C156.508 168.264 156.704 168.265 156.876 168.324C158.546 168.888 159.973 170.175 160.751 171.827C161.204 172.791 161.419 174.488 161.36 176.39C161.301 178.292 159.579 183.255 157.969 185.065C156.532 186.681 154.419 187.747 152.38 188.214C153.733 189.757 154.634 191.686 155.3 193.647C156.024 195.777 156.472 197.991 156.637 200.246C156.794 202.389 156.809 204.655 156.305 206.752C155.834 208.713 154.827 210.322 153.145 211.342C152.374 211.81 151.545 212.161 150.712 212.482C149.89 212.798 149.066 213.106 148.205 213.284C146.576 213.619 144.699 213.562 143.445 212.268C142.993 211.802 142.495 211.216 142.165 210.647C142.047 210.442 141.975 210.308 142.119 210.108C142.292 209.868 142.571 209.684 142.793 209.497C144.058 208.427 144.841 206.999 145.038 205.303C145.238 203.581 144.775 201.359 143.097 200.608C141.025 199.68 138.744 200.745 136.903 201.737C136.121 198.982 134.514 196.502 131.995 195.239C129.209 193.841 126.011 193.677 123.148 192.478C122.401 192.165 121.641 191.81 121.092 191.174C120.862 190.907 120.593 190.562 120.501 190.21C120.381 189.748 120.68 189.36 120.911 189C122.135 187.088 126.779 183.227 129.195 182.492Z" fill="#191847"/>
<path fill-rule="evenodd" clip-rule="evenodd" d="M62.7172 312.385C57.4268 305.228 44.2026 309.966 44.2105 315.891C44.2314 331.448 58.4635 405.301 59.2066 409.964C59.9496 414.627 67.9098 416.152 68.3734 410.326C69.111 401.056 70.4813 368.919 69.1102 353.969C68.7097 349.602 68.2875 345.38 67.8621 341.426C75.342 354.83 86.7159 373.775 101.984 398.261L110.47 394.394C103.806 372.494 98.3421 357.033 94.0775 348.011C86.7755 332.564 79.9287 319.335 77.0471 314.676C73.2407 308.521 67.0669 309.338 62.7172 312.385Z" fill="#B28B67"/>
<path fill-rule="evenodd" clip-rule="evenodd" d="M109.863 382.232L80.7377 313.408C73.7603 302.212 54.1976 315.686 56.577 322.18C61.9791 336.922 89.4528 384.649 91.0623 389.042L109.863 382.232Z" fill="#1F28CF"/>
<path fill-rule="evenodd" clip-rule="evenodd" d="M43.4737 321.265C43.4737 340.773 52.0459 386.628 52.0518 390.924L72.8176 390.225C69.1877 350.357 67.6569 330.287 68.2253 330.017C69.5041 329.409 120.649 337.078 135.988 337.657C158.107 338.492 167.258 324.956 168 299.269H125.154C88.5175 303.631 64.4383 306.666 52.9167 308.371C45.5178 309.467 43.4737 315.891 43.4737 321.265Z" fill="#2B44FF"/>
<path fill-rule="evenodd" clip-rule="evenodd" d="M111.613 392.24C112.946 394.173 113.745 395.669 114.01 396.727C114.332 398.014 114.588 399.946 114.776 402.522C113.281 402.894 99.8416 406.232 74.4587 412.538C72.5455 409.339 72.683 407.322 74.8713 406.485C77.0596 405.649 78.8725 404.934 80.3099 404.341L96.9616 391.343C97.282 391.093 97.7451 391.15 97.9959 391.47C98.0002 391.476 98.0044 391.481 98.0086 391.487L99.9432 394.105C102.277 394.56 104.096 394.625 105.403 394.3C106.464 394.036 107.823 393.244 109.479 391.923L109.479 391.923C110.115 391.416 111.042 391.52 111.551 392.155C111.572 392.183 111.593 392.211 111.613 392.24Z" fill="#C72A2A"/>
<path fill-rule="evenodd" clip-rule="evenodd" d="M69.5003 399.34C70.3247 401.535 70.7368 403.178 70.7368 404.268C70.7368 405.593 70.5155 407.527 70.0728 410.07C68.5313 410.07 54.6783 410.07 28.5135 410.07C27.4336 406.509 28.057 404.586 30.3838 404.302C32.7106 404.018 34.6436 403.761 36.1826 403.533L55.4989 394.943C55.8706 394.778 56.3063 394.944 56.472 395.315C56.4748 395.321 56.4775 395.328 56.4802 395.334L57.7218 398.338C59.8759 399.341 61.6262 399.842 62.973 399.842C64.0671 399.842 65.5782 399.401 67.5062 398.52L67.5062 398.52C68.246 398.181 69.1207 398.505 69.4599 399.244C69.4745 399.275 69.488 399.308 69.5003 399.34Z" fill="#C72A2A"/>
<path d="M33.5263 410.07H67.4211C68.8454 410.07 70 411.222 70 412.642C70 414.063 68.8454 415.215 67.4211 415.215H33.5263C32.102 415.215 30.9474 414.063 30.9474 412.642C30.9474 411.222 32.102 410.07 33.5263 410.07Z" fill="#2F3676"/>
<path fill-rule="evenodd" clip-rule="evenodd" d="M170.211 303.495H91.3684C87.299 303.495 84 306.786 84 310.845V346.86H174.632C176.259 346.86 177.579 345.544 177.579 343.92V310.845C177.579 306.786 174.28 303.495 170.211 303.495Z" fill="#2F3676"/>
<path fill-rule="evenodd" clip-rule="evenodd" d="M91.3684 303.495H89.752C86.1433 303.495 83.0656 306.102 82.481 309.654L66.3158 407.865H74.1895" fill="#2F3676"/>
<path d="M70 422.565C62.675 422.565 56.7368 416.642 56.7368 409.335C56.7368 402.028 62.675 396.105 70 396.105C77.325 396.105 83.2632 402.028 83.2632 409.335C83.2632 416.642 77.325 422.565 70 422.565Z" fill="#191847"/>
<path fill-rule="evenodd" clip-rule="evenodd" d="M168 421.095C198.928 421.095 224 396.086 224 365.235C224 334.384 198.928 309.375 168 309.375C137.072 309.375 112 334.384 112 365.235C112 396.086 137.072 421.095 168 421.095ZM168 410.805C142.769 410.805 122.316 390.403 122.316 365.235C122.316 340.067 142.769 319.665 168 319.665C193.231 319.665 213.684 340.067 213.684 365.235C213.684 390.403 193.231 410.805 168 410.805Z" fill="#191847"/>
<path d="M165.053 316.725H170.947V413.745H165.053V316.725Z" fill="#191847"/>
<path d="M132.57 331.973L134.654 329.894C135.23 329.32 136.163 329.32 136.738 329.894L203.43 396.418C204.005 396.992 204.005 397.923 203.43 398.497L201.346 400.576C200.77 401.15 199.837 401.15 199.262 400.576L132.57 334.052C131.995 333.478 131.995 332.547 132.57 331.973Z" fill="#191847"/>
<path d="M119.368 366.705V363.765C119.368 362.953 120.028 362.295 120.842 362.295H215.158C215.972 362.295 216.632 362.953 216.632 363.765V366.705C216.632 367.517 215.972 368.175 215.158 368.175H120.842C120.028 368.175 119.368 367.517 119.368 366.705Z" fill="#191847"/>
<path d="M134.654 400.576L132.57 398.497C131.995 397.923 131.995 396.992 132.57 396.418L199.262 329.894C199.837 329.32 200.77 329.32 201.346 329.894L203.43 331.973C204.005 332.547 204.005 333.478 203.43 334.052L136.738 400.576C136.163 401.15 135.23 401.15 134.654 400.576Z" fill="#191847"/>
<path fill-rule="evenodd" clip-rule="evenodd" d="M93.2428 223.63L65.3137 215.267C60.1035 211.222 55.1891 208.264 50.5704 206.393C49.2272 206.141 47.0033 206.287 49.7823 209.432C52.5612 212.576 55.3425 216.009 54.5491 217.327C53.7556 218.646 50.8647 217.652 50.028 219.74C49.4703 221.133 54.2598 222.13 64.3967 222.732L86.1121 235.48L93.2428 223.63ZM95.7107 272.749L72.2067 289.965C65.832 291.681 60.5061 293.816 56.229 296.369C55.2187 297.288 53.9976 299.147 58.1876 298.826C62.3777 298.505 66.7994 298.354 67.3776 299.78C67.9557 301.206 65.4202 302.91 66.5888 304.834C67.3679 306.116 71.0488 302.901 77.6314 295.188L100.907 285.56L95.7107 272.749Z" fill="#B28B67"/>
<path fill-rule="evenodd" clip-rule="evenodd" d="M132.218 226.384C119.419 250.19 100.91 268.439 74.0779 287.41L84.2378 298.837C114.197 287.731 130.009 281.031 137.774 258.539C139.723 252.893 141.085 234.898 142.253 225.43L132.218 226.384Z" fill="#2026A2"/>
<path fill-rule="evenodd" clip-rule="evenodd" d="M168 305.7H111.263C124.115 266.602 130.68 239.767 130.959 225.197C130.973 224.454 132.348 223.145 132.957 223.316C137.407 224.57 142.168 224.101 147.242 221.91C160.692 243.488 165.344 270.056 168 305.7Z" fill="#F2F2F2"/>
<path fill-rule="evenodd" clip-rule="evenodd" d="M142.4 221.945C126.137 222.078 99.7507 225.04 69.3201 215.295L66.3158 230.269C89.3149 245.024 112.604 256.454 133.01 254.831C124.149 292.747 124.557 323.785 144.121 323.785C153.463 323.785 163.547 323.785 174.373 323.785C179.178 291.576 166.55 246.917 154.843 224.392C154.396 223.532 153.444 221.91 151.202 221.91C149.249 221.91 146.319 221.91 142.412 221.91C142.408 221.922 142.404 221.933 142.4 221.945Z" fill="#1F28CF"/>
<path fill-rule="evenodd" clip-rule="evenodd" d="M357.468 93.3843C353.068 87.422 350.305 80.2991 351.388 72.6099C354.507 50.455 385.157 57.5201 390.4 69.1786C395.643 80.8372 392.933 109.291 385.001 110.754C381.838 111.338 375.356 108.913 368.903 104.381L371.04 134.593L346.071 132.847L357.468 93.3843Z" fill="#915B3C"/>
<path fill-rule="evenodd" clip-rule="evenodd" d="M341.021 64.4375C340.27 63.5819 339.91 62.4104 339.605 61.3007C339.289 60.1479 338.984 58.9843 338.804 57.7948C338.443 55.4181 338.626 52.7267 340.423 51.0265C341.863 49.663 343.918 49.15 345.782 49.1376C347.023 49.1292 348.28 49.3909 349.437 49.8629C350.584 50.3312 351.543 51.1716 352.649 51.7289C352.868 49.2103 353.485 46.6019 354.915 44.5382C356.291 42.5526 358.335 41.5273 360.591 41.3761C362.908 41.2209 365.136 41.9162 367.112 43.1705C367.607 43.4846 368.096 43.8116 368.56 44.1755C368.949 44.4803 369.35 44.8426 369.821 44.9884C370.346 45.1511 370.633 44.8612 371.007 44.4959C371.446 44.0676 371.932 43.6974 372.442 43.3747C374.697 41.948 377.557 41.4966 379.976 42.6154C381.09 43.1309 382.152 43.9482 382.858 45.0215C383.487 45.9782 383.88 47.4535 384.791 48.1532C385.178 48.4502 385.489 48.1143 385.877 47.8771C386.459 47.5206 387.019 47.1214 387.607 46.7762C388.433 46.2912 389.315 45.9468 390.244 45.7993C391.604 45.5832 393.448 45.7851 393.708 47.5647C393.806 48.2331 393.646 48.9296 393.554 49.5897C393.426 50.4961 393.296 51.402 393.153 52.3061C393.045 52.9924 392.923 53.6541 392.745 54.3232C392.65 54.6798 392.385 55.3385 392.515 55.7114C392.677 56.1774 393.589 55.9827 393.97 56.0251C394.722 56.109 395.471 56.2943 396.146 56.6655C396.669 56.9532 397.212 57.3604 397.396 57.9961C397.51 58.3865 397.446 58.7749 397.352 59.1619C397.24 59.6263 397.313 59.882 397.339 60.3604C398.388 59.9322 401.977 59.0692 402.291 60.916C402.396 61.531 402.013 62.1908 401.722 62.6829C401.211 63.546 400.567 64.3224 399.911 65.06C398.544 66.5988 396.95 67.897 395.257 68.9841C397.084 69.9544 397.403 72.4619 395.667 73.8211C394.901 74.4212 393.922 74.4983 393.015 74.3931C392.683 74.3546 392.212 74.1931 391.946 74.2327C391.803 74.254 391.644 74.3629 391.448 74.3626C390.158 74.3608 388.731 73.9502 387.496 73.5777C385.296 72.9139 383.254 71.7068 381.639 69.9729C381.224 69.5281 380.875 69.2643 380.277 69.2287C379.754 69.1974 379.231 69.3049 378.708 69.2816C377.323 69.2203 376.124 68.4573 374.872 67.9178C374.672 69.6463 374.044 71.5217 373.226 73.0321C372.558 74.2639 371.338 74.3643 370.143 74.3929C366.322 74.4846 362.541 73.8197 358.74 73.5592C362.361 74.648 366.138 75.2566 369.716 76.4902C371.334 77.0477 369.997 78.0706 369.239 78.7914C367.99 79.9784 367.017 81.4893 366.303 83.1027C364.667 80.6309 361.594 78.8627 358.725 79.3863C355.556 79.9647 353.068 84.0226 354.848 87.1893C355.881 89.0276 357.921 89.8521 359.606 90.7286C358.152 92.0428 357.679 94.1007 356.74 95.7965C356.278 96.6328 355.645 97.5706 354.724 97.809C354.383 97.8972 353.992 97.8794 353.711 98.1324C353.362 98.4456 353.258 98.8157 352.823 99.0754C351.085 100.112 348.502 99.842 347.138 98.2355C345.904 96.7825 346.4 94.6544 347.606 93.3531C345.892 92.4934 342.74 91.3214 343.634 88.6187C339.825 88.097 330.966 81.2398 336.42 77.0631C333.712 75.2727 331.394 71.1977 333.445 67.8919C335.025 65.3463 338.35 64.3916 341.021 64.4375Z" fill="#191847"/>
<path fill-rule="evenodd" clip-rule="evenodd" d="M325.576 223.718L403.07 353.273L461.168 462.802H473.682L376.338 223.718L325.576 223.718Z" fill="#784931"/>
<path fill-rule="evenodd" clip-rule="evenodd" d="M453.517 457.746C452.35 460.86 451.767 463.191 451.767 464.737C451.767 466.617 452.08 469.362 452.707 472.97C454.888 472.97 474.495 472.97 511.528 472.97C513.056 467.916 512.174 465.188 508.881 464.785C505.587 464.382 502.852 464.019 500.673 463.694L473.334 451.506C472.808 451.271 472.191 451.508 471.957 452.034C471.953 452.043 471.949 452.052 471.945 452.061L470.188 456.324C467.139 457.746 464.662 458.457 462.755 458.457C461.207 458.457 459.068 457.832 456.339 456.581L456.339 456.581C455.292 456.101 454.054 456.561 453.574 457.608C453.553 457.653 453.534 457.699 453.517 457.746Z" fill="#372400"/>
<path fill-rule="evenodd" clip-rule="evenodd" d="M445.033 445.263L469.166 437.963C458.592 406.355 445.633 371.571 430.289 333.612C414.944 295.653 398.464 259.022 380.85 223.718H312.69C332.274 268.376 353.035 308.953 374.974 345.45C396.913 381.947 420.266 415.218 445.033 445.263Z" fill="#5C63AB"/>
<path fill-rule="evenodd" clip-rule="evenodd" d="M320.484 223.718C313.17 269.245 299.063 327.41 297.732 329.205C296.844 330.402 264.893 341.108 201.878 361.325L204.582 372.359C279.726 361.517 319.321 353.106 323.366 347.124C329.434 338.152 359.73 267.272 371.464 223.718H320.484Z" fill="#915B3C"/>
<path fill-rule="evenodd" clip-rule="evenodd" d="M224.029 351.786L228.79 369.558C284.994 374.488 319.432 370.926 332.103 358.873C344.773 346.82 359.215 301.768 375.426 223.718H310.432C300.161 287.63 294.418 320.928 293.205 323.611C291.992 326.294 268.933 335.686 224.029 351.786Z" fill="#8991DC"/>
<path fill-rule="evenodd" clip-rule="evenodd" d="M204.964 356.727C201.695 356.119 199.298 355.949 197.775 356.218C195.923 356.545 193.275 357.33 189.831 358.573C190.21 360.722 193.614 380.031 200.045 416.501C205.287 417.129 207.82 415.786 207.645 412.473C207.47 409.159 207.354 406.402 207.295 404.2L214.551 375.16C214.69 374.601 214.35 374.035 213.791 373.895C213.782 373.893 213.772 373.891 213.763 373.888L209.259 372.898C207.329 370.143 206.199 367.826 205.868 365.949C205.599 364.424 205.843 362.209 206.601 359.305L206.601 359.305C206.892 358.19 206.224 357.051 205.11 356.76C205.062 356.747 205.013 356.737 204.964 356.727Z" fill="#372400"/>
<path fill-rule="evenodd" clip-rule="evenodd" d="M418.654 213.44L447.173 243.274C455.636 247.238 462.534 251.531 467.866 256.15C469.048 257.682 470.292 260.581 464.53 259.102C458.769 257.623 452.643 256.326 451.486 258.176C450.329 260.026 453.443 263.031 451.34 265.432C449.938 267.032 445.6 261.635 438.325 249.239L408.255 230.066L418.654 213.44ZM272.166 177.278L289.676 183.743C261.337 221.699 246.21 241.743 244.293 243.874C239.98 248.668 241.663 258.974 242.041 264.32C234.269 264.878 239.012 254.062 229.153 254.915C220.155 255.695 211.939 260.051 205.045 251.329C204.197 250.257 203.924 247.281 207.54 246.35C216.55 244.03 230.091 239.159 232.532 236.822C235.86 233.634 249.071 213.787 272.166 177.278Z" fill="#915B3C"/>
<path fill-rule="evenodd" clip-rule="evenodd" d="M425.825 217.401C430.093 217.842 434.555 219.349 439.179 221.872C441.454 223.113 442.292 225.964 441.05 228.239C440.329 229.561 439.065 230.397 437.687 230.623C438.506 231.475 439.335 232.325 440.173 233.172L428.933 248.587C397.211 225.114 366.828 206.276 356.98 175.021C353.675 164.531 361.122 132.192 362.738 120.235L374.517 117.667C384.248 152.017 399.616 186.036 425.825 217.401Z" fill="#69A1AC"/>
<path fill-rule="evenodd" clip-rule="evenodd" d="M304.688 223.821C336.352 233.061 361.766 237.542 380.933 237.265C383.307 237.23 384.952 227.31 384.364 224.418C375.201 179.378 369.725 146.624 374.883 117.372C371.558 118.426 366.189 117.724 358.775 115.269C333.007 141.808 317.507 174.738 304.688 223.821Z" fill="#191847"/>
<path fill-rule="evenodd" clip-rule="evenodd" d="M297.811 227.742C296.896 226.517 296.597 224.869 297.159 223.326L298.229 220.386C298.954 218.393 300.889 217.19 302.902 217.304C303.518 215.824 304.085 214.345 304.598 212.869C308.935 200.401 307.611 187.192 309.957 174.863C290.957 186.042 271.852 207.76 252.64 240.018L234.249 230.89C235.474 228.27 236.72 225.69 237.986 223.147C235.971 221.481 234.383 215.19 236.438 214.546C238.56 213.882 240.745 213.536 242.988 213.501C270.22 163.067 306.213 129.017 350.968 111.352L356.516 112.331L362.649 113.412C351.191 158.284 381.184 265.949 349.739 347.838C318.052 349.27 278.265 320.414 232.916 329.867C240.514 295.997 279.165 261.448 297.811 227.742L297.811 227.742Z" fill="#89C5CC"/>
<path fill-rule="evenodd" clip-rule="evenodd" d="M355.029 113.127L346.857 128.488L355.374 142.585L344.038 150.484L360.324 194.544L338.824 149.646L350.002 141.637L342.434 129.172L355.029 113.127Z" fill="black" fill-opacity="0.1"/>
<path fill-rule="evenodd" clip-rule="evenodd" d="M350.765 208.743C348.496 208.343 346.981 206.18 347.381 203.911C347.781 201.642 349.945 200.127 352.214 200.527C354.483 200.927 355.998 203.09 355.598 205.359C355.198 207.628 353.034 209.143 350.765 208.743ZM351.735 233.271C349.466 232.871 347.951 230.707 348.351 228.438C348.751 226.169 350.915 224.654 353.184 225.054C355.453 225.455 356.968 227.618 356.568 229.887C356.168 232.156 354.004 233.671 351.735 233.271ZM348.597 257.074C346.328 256.674 344.813 254.51 345.213 252.242C345.613 249.973 347.777 248.458 350.046 248.858C352.315 249.258 353.83 251.421 353.43 253.69C353.03 255.959 350.866 257.474 348.597 257.074Z" fill="black" fill-opacity="0.4"/>
<path fill-rule="evenodd" clip-rule="evenodd" d="M552.475 128.937C549.466 125.412 547.429 121.091 547.769 116.25C548.75 102.301 568.208 105.369 571.993 112.41C575.778 119.45 575.329 137.308 570.437 138.566C568.486 139.068 564.33 137.839 560.1 135.295L562.755 154.038H547.079L552.475 128.937Z" fill="#B28B67"/>
<mask id="mask0" mask-type="alpha" maskUnits="userSpaceOnUse" x="536" y="104" width="37" height="70">
<path d="M569.917 110.004C570.267 110.121 569.917 108.622 569.082 108.073C566.521 106.392 558.898 103.904 553.685 104.983C550.193 105.707 545.837 107.523 543.048 109.837C540.533 111.924 538.245 115.603 537.355 118.835C536.42 122.229 536.067 126.951 537.355 129.912C538.889 133.438 544.322 137.238 544.466 137.743C544.63 138.319 543.988 140.569 543.518 142.94C543.048 145.311 543.262 151.347 543.518 152.332C543.927 153.905 546.122 154.679 547.079 154.793C552.37 155.422 556.205 161.976 557.801 163.653C564.906 170.772 569.865 173.868 572.677 172.941C573.417 172.697 572.308 163.852 571.568 160.061C570.828 156.27 563.568 149.504 563.103 147.275C562.829 145.962 562.784 143.675 562.755 143.571C562.07 138.861 562.188 138.478 561.19 136.559C560.191 134.639 559.417 134.527 559.657 133.968C560.829 131.236 564.601 122.877 565.457 120.144C566.477 116.887 565.995 117.957 567.046 114.71C567.512 113.273 568.104 109.396 569.917 110.004Z" fill="white"/>
</mask>
<g mask="url(#mask0)">
<path d="M569.917 110.004C570.267 110.121 569.917 108.622 569.082 108.073C566.521 106.392 558.898 103.904 553.685 104.983C550.193 105.707 545.837 107.523 543.048 109.837C540.533 111.924 538.245 115.603 537.355 118.835C536.42 122.229 536.067 126.951 537.355 129.912C538.889 133.438 544.322 137.238 544.466 137.743C544.63 138.319 543.988 140.569 543.518 142.94C543.048 145.311 543.262 151.347 543.518 152.332C543.927 153.905 546.122 154.679 547.079 154.793C552.37 155.422 556.205 161.976 557.801 163.653C564.906 170.772 569.865 173.868 572.677 172.941C573.417 172.697 572.308 163.852 571.568 160.061C570.828 156.27 563.568 149.504 563.103 147.275C562.829 145.962 562.784 143.675 562.755 143.571C562.07 138.861 562.188 138.478 561.19 136.559C560.191 134.639 559.417 134.527 559.657 133.968C560.829 131.236 564.601 122.877 565.457 120.144C566.477 116.887 565.995 117.957 567.046 114.71C567.512 113.273 568.104 109.396 569.917 110.004Z" fill="#89C5CC"/>
<path fill-rule="evenodd" clip-rule="evenodd" d="M556.43 110.367C555.284 113.995 555.037 115.931 555.284 120.889H554.722C553.672 116.211 554.606 111.807 555.723 110.367H556.43ZM541.058 119.73C543.193 124.9 544.166 127.953 550.129 132.137L549.669 132.459C543.749 129.111 542.026 125.118 540.609 119.945L541.058 119.73ZM549.831 114.468C550.801 121.807 551.084 125.999 556.136 134.026L555.598 134.19C550.399 127.201 549.575 121.496 549.329 114.509L549.831 114.468ZM544.25 136.267L544.71 135.71C550.985 137.671 550.286 141.721 558.19 145.822L557.53 146.221C550.609 143.371 548.991 137.258 544.25 136.267Z" fill="black" fill-opacity="0.2"/>
</g>
<path fill-rule="evenodd" clip-rule="evenodd" d="M534.485 207.977C535.662 224.018 611.536 271.244 611.978 272.569C612.175 273.158 604.303 291.774 588.362 328.417L594.994 330.989C619.445 292.181 631.043 270.71 629.787 266.575C627.989 260.655 608.366 241.179 570.918 208.148L534.485 207.977Z" fill="#B28B67"/>
<path fill-rule="evenodd" clip-rule="evenodd" d="M590.107 320.142L600.936 324.075C623.769 298.366 632.719 277.154 631.088 266.346C630 259.141 610.444 239.698 572.421 208.016L533.708 208.016C535.029 245.165 605.354 272.711 606.295 274.294C607.235 275.877 597.978 291.381 590.107 320.142Z" fill="#2F3676"/>
<path fill-rule="evenodd" clip-rule="evenodd" d="M585.926 327.157C584.571 328.738 583.728 329.983 583.396 330.892C582.993 331.998 582.589 333.678 582.183 335.932C583.467 336.398 595.005 340.586 616.796 348.496C618.779 345.852 618.845 344.06 616.994 343.12C615.142 342.18 613.611 341.381 612.398 340.725L598.925 327.722C598.666 327.471 598.253 327.479 598.002 327.738C597.998 327.742 597.993 327.747 597.989 327.751L596.041 329.882C593.941 330.067 592.331 329.955 591.21 329.548C590.298 329.218 589.174 328.393 587.837 327.075L587.837 327.075C587.323 326.569 586.496 326.575 585.989 327.088C585.967 327.11 585.946 327.133 585.926 327.157Z" fill="#712E04"/>
<path fill-rule="evenodd" clip-rule="evenodd" d="M543.208 207.977L509.409 288.949L476.189 357.405H484.027L569.776 207.977H543.208Z" fill="#997659"/>
<path fill-rule="evenodd" clip-rule="evenodd" d="M475.72 354.245C474.99 356.191 474.624 357.648 474.624 358.614C474.624 359.789 474.821 361.505 475.213 363.76C476.579 363.76 488.86 363.76 512.054 363.76C513.011 360.601 512.458 358.896 510.396 358.644C508.333 358.393 506.62 358.165 505.255 357.962L488.132 350.345C487.803 350.198 487.416 350.346 487.27 350.675C487.267 350.68 487.265 350.686 487.262 350.692L486.162 353.356C484.252 354.245 482.7 354.69 481.507 354.69C480.537 354.69 479.197 354.299 477.488 353.517L477.488 353.517C476.832 353.217 476.057 353.504 475.756 354.159C475.743 354.187 475.731 354.215 475.72 354.245Z" fill="#712E04"/>
<path fill-rule="evenodd" clip-rule="evenodd" d="M479.189 343.184L496.604 346.443C510.07 326.688 566.423 245.686 572.602 207.977H533.831C513.198 235.237 492.024 323.102 479.189 343.184Z" fill="#5C63AB"/>
<path fill-rule="evenodd" clip-rule="evenodd" d="M597.707 141.153L622.465 133.737C627.084 130.149 631.441 127.526 635.535 125.867C636.726 125.643 638.697 125.773 636.233 128.562C633.77 131.351 631.305 134.394 632.008 135.564C632.711 136.733 635.274 135.851 636.016 137.704C636.51 138.938 632.264 139.823 623.278 140.357L604.028 151.662L597.707 141.153ZM595.52 184.712L616.355 199.98C622.006 201.502 626.727 203.395 630.519 205.659C631.414 206.474 632.497 208.123 628.782 207.838C625.068 207.553 621.148 207.42 620.636 208.684C620.123 209.948 622.371 211.46 621.335 213.166C620.644 214.303 617.381 211.452 611.546 204.612L590.914 196.074L595.52 184.712Z" fill="#B28B67"/>
<path fill-rule="evenodd" clip-rule="evenodd" d="M563.157 143.595C574.503 164.707 590.91 180.891 614.696 197.714L605.69 207.848C579.132 197.999 565.115 192.057 558.232 172.11C556.505 167.104 555.297 151.146 554.261 142.749L563.157 143.595Z" fill="#E87613"/>
<path fill-rule="evenodd" clip-rule="evenodd" d="M531.438 213.934H581.733C570.34 179.261 564.521 155.464 564.274 142.542C564.261 141.884 563.042 140.723 562.502 140.875C558.558 141.986 554.337 141.571 549.839 139.628C537.916 158.764 533.793 182.324 531.438 213.934Z" fill="#F2F2F2"/>
<path fill-rule="evenodd" clip-rule="evenodd" d="M554.131 139.659C568.548 139.776 591.938 142.404 618.914 133.761L621.577 147.041C601.189 160.126 580.545 170.262 562.455 168.823C570.31 202.447 569.948 229.972 552.606 229.972C544.324 229.972 535.385 229.972 525.789 229.972C521.53 201.409 532.724 161.805 543.101 141.829C543.497 141.066 544.341 139.628 546.329 139.628C548.06 139.628 550.658 139.628 554.121 139.628C554.124 139.638 554.128 139.648 554.131 139.659Z" fill="#FF9B21"/>
</svg>
